<?xml version="1.0" encoding="utf-8"?>
<!-- Generator: Adobe Illustrator 16.0.0, SVG Export Plug-In . SVG Version: 6.00 Build 0)  -->
<!DOCTYPE svg PUBLIC "-//W3C//DTD SVG 1.1//EN" "http://www.w3.org/Graphics/SVG/1.1/DTD/svg11.dtd">
<svg version="1.1" xmlns="http://www.w3.org/2000/svg" xmlns:xlink="http://www.w3.org/1999/xlink" x="0px" y="0px" width="30px"
	 height="30px" viewBox="0 0 30 30" enable-background="new 0 0 30 30" xml:space="preserve">
<g id="图层_2" display="none">
	<rect x="0" display="inline" fill="#FFFFFF" width="30" height="30"/>
	<linearGradient id="SVGID_1_" gradientUnits="userSpaceOnUse" x1="16.4482" y1="22.2539" x2="16.2963" y2="10.0581">
		<stop  offset="0" style="stop-color:#FFFFFF"/>
		<stop  offset="0.0058" style="stop-color:#FFFEF8"/>
		<stop  offset="0.038" style="stop-color:#FFF2C9"/>
		<stop  offset="0.0712" style="stop-color:#FFE89C"/>
		<stop  offset="0.1047" style="stop-color:#FEDF72"/>
		<stop  offset="0.1385" style="stop-color:#FDD84B"/>
		<stop  offset="0.1727" style="stop-color:#FDD323"/>
		<stop  offset="0.2074" style="stop-color:#FDCF00"/>
		<stop  offset="0.243" style="stop-color:#FCCD00"/>
		<stop  offset="0.2809" style="stop-color:#FCCD00"/>
		<stop  offset="0.6685" style="stop-color:#F1942E"/>
		<stop  offset="0.8876" style="stop-color:#EA652D"/>
		<stop  offset="1" style="stop-color:#E5352B"/>
	</linearGradient>
	<path display="inline" fill="url(#SVGID_1_)" d="M22.275,13.208c0.779,6.929-1.244,12.845-4.521,13.213
		c-3.276,0.368-6.563-4.95-7.342-11.879C9.633,7.613,11.657,1.697,14.934,1.329C18.209,0.96,21.496,6.279,22.275,13.208z"/>
	
		<ellipse transform="matrix(0.8457 0.5337 -0.5337 0.8457 12.9112 -9.005)" display="inline" fill="#EE8F26" cx="22.027" cy="17.824" rx="4.985" ry="10.025"/>
	<path display="inline" fill="#EE8F26" d="M2.123,6.603c0.05-1.188,0.223-2.339,0.474-3.459C1.992,4.805,1.624,6.584,1.544,8.445
		c-0.416,9.75,7.15,17.99,16.898,18.404c0.399,0.018,0.792,0,1.186-0.01C9.429,25.79,1.681,16.982,2.123,6.603z"/>
	<path display="inline" fill="#EE8F26" d="M5.275,8.26c0-1.188,0.124-2.347,0.327-3.477C5.067,6.47,4.775,8.263,4.775,10.126
		c0,9.758,7.91,17.668,17.667,17.668c0.399,0,0.79-0.034,1.183-0.06C13.391,27.119,5.275,18.649,5.275,8.26z"/>
</g>
<g id="图层_3" display="none">
	
		<image display="inline" overflow="visible" width="230" height="187" xlink:href="CFB0885E.jpg"  transform="matrix(0.1899 0 0 0.1899 -6.083 -2.9204)">
	</image>
</g>
<g id="图层_4">
	
		<image display="none" overflow="visible" width="369" height="304" xlink:href="CFB0885D.jpg"  transform="matrix(0.0851 0 0 0.0851 -0.9868 1.311)">
	</image>
	<line fill="none" stroke="#F6D67D" stroke-linecap="round" stroke-miterlimit="10" x1="3.469" y1="3.156" x2="4.688" y2="3.156"/>
	<line fill="none" stroke="#F5CE72" stroke-linecap="round" stroke-miterlimit="10" x1="3.103" y1="4.188" x2="5.853" y2="4.188"/>
	<line fill="none" stroke="#F1AA77" stroke-linecap="round" stroke-miterlimit="10" x1="3.208" y1="5.188" x2="6.833" y2="5.188"/>
	<line fill="none" stroke="#F3B798" stroke-linecap="round" stroke-miterlimit="10" x1="3.325" y1="6.125" x2="7.512" y2="6.125"/>
	<line fill="none" stroke="#F0A18A" stroke-linecap="round" stroke-miterlimit="10" x1="3.349" y1="7.104" x2="8.38" y2="7.104"/>
	<line fill="none" stroke="#EEAFB2" stroke-linecap="round" stroke-miterlimit="10" x1="3.208" y1="8.083" x2="8.927" y2="8.083"/>
	<line fill="none" stroke="#F2B6BF" stroke-linecap="round" stroke-miterlimit="10" x1="3.103" y1="9.042" x2="9.417" y2="9.042"/>
	<line fill="none" stroke="#F1A8BA" stroke-linecap="round" stroke-miterlimit="10" x1="2.769" y1="10" x2="9.813" y2="10"/>
	
		<line fill="none" stroke="#F4CBD2" stroke-linecap="round" stroke-miterlimit="10" x1="2.614" y1="11.019" x2="10.25" y2="11.019"/>
	
		<line fill="none" stroke="#EC9FB9" stroke-linecap="round" stroke-miterlimit="10" x1="2.871" y1="12.019" x2="10.652" y2="12.019"/>
	
		<line fill="none" stroke="#E793B9" stroke-linecap="round" stroke-miterlimit="10" x1="3.667" y1="12.977" x2="10.947" y2="12.977"/>
	
		<line fill="none" stroke="#E8ADCB" stroke-linecap="round" stroke-miterlimit="10" x1="4.715" y1="13.894" x2="11.285" y2="13.894"/>
	
		<line fill="none" stroke="#E8B5D1" stroke-linecap="round" stroke-miterlimit="10" x1="5.797" y1="14.915" x2="11.542" y2="14.915"/>
	
		<line fill="none" stroke="#DEC6DD" stroke-linecap="round" stroke-miterlimit="10" x1="6.841" y1="15.894" x2="11.992" y2="15.894"/>
	
		<line fill="none" stroke="#BF9FC8" stroke-linecap="round" stroke-miterlimit="10" x1="7.512" y1="16.852" x2="12.227" y2="16.852"/>
	
		<line fill="none" stroke="#DDCDE3" stroke-linecap="round" stroke-miterlimit="10" x1="8.229" y1="17.873" x2="12.277" y2="17.873"/>
	
		<line fill="none" stroke="#ACADD2" stroke-linecap="round" stroke-miterlimit="10" x1="9.042" y1="18.914" x2="12.277" y2="18.914"/>
	
		<line fill="none" stroke="#C9D0E7" stroke-linecap="round" stroke-miterlimit="10" x1="9.87" y1="19.871" x2="12.104" y2="19.871"/>
	
		<line fill="none" stroke="#A9C0E0" stroke-linecap="round" stroke-miterlimit="10" x1="10.253" y1="20.809" x2="11.285" y2="20.809"/>
	
		<line fill="none" stroke="#C9D0E7" stroke-linecap="round" stroke-miterlimit="10" x1="1.459" y1="15.214" x2="4.078" y2="15.264"/>
	
		<line fill="none" stroke="#ACADD2" stroke-linecap="round" stroke-miterlimit="10" x1="2.125" y1="14.243" x2="3.103" y2="14.261"/>
	<line fill="none" stroke="#DEC6DD" stroke-linecap="round" stroke-miterlimit="10" x1="4.396" y1="23" x2="7.25" y2="23"/>
	
		<line fill="none" stroke="#A9C0E0" stroke-linecap="round" stroke-miterlimit="10" x1="1.146" y1="16.146" x2="5.059" y2="16.146"/>
	<line fill="none" stroke="#8ABFE3" stroke-linecap="round" stroke-miterlimit="10" x1="1.25" y1="17.104" x2="5.823" y2="17.104"/>
	<line fill="none" stroke="#A9C0E0" stroke-linecap="round" stroke-miterlimit="10" x1="1.25" y1="18.063" x2="7.016" y2="18.063"/>
	
		<line fill="none" stroke="#C9D0E7" stroke-linecap="round" stroke-miterlimit="10" x1="1.542" y1="19.063" x2="7.582" y2="19.063"/>
	
		<line fill="none" stroke="#ACADD2" stroke-linecap="round" stroke-miterlimit="10" x1="1.813" y1="20.042" x2="8.604" y2="20.042"/>
	
		<line fill="none" stroke="#DDCDE3" stroke-linecap="round" stroke-miterlimit="10" x1="2.469" y1="21.063" x2="9.177" y2="21.063"/>
	
		<line fill="none" stroke="#BF9FC8" stroke-linecap="round" stroke-miterlimit="10" x1="3.167" y1="22.063" x2="9.591" y2="22.063"/>
	
		<line fill="none" stroke="#D3E1AB" stroke-linecap="round" stroke-miterlimit="10" x1="12.75" y1="23.406" x2="17.266" y2="23.406"/>
	
		<line fill="none" stroke="#E5E57A" stroke-linecap="round" stroke-miterlimit="10" x1="13.012" y1="24.359" x2="16.031" y2="24.359"/>
	
		<line fill="none" stroke="#E5E57A" stroke-linecap="round" stroke-miterlimit="10" x1="13.52" y1="25.328" x2="14.39" y2="25.328"/>
	
		<line fill="none" stroke="#7AC6E8" stroke-linecap="round" stroke-miterlimit="10" x1="15.915" y1="17.234" x2="20.344" y2="17.234"/>
	
		<line fill="none" stroke="#BBDFE6" stroke-linecap="round" stroke-miterlimit="10" x1="18.5" y1="18.406" x2="21.292" y2="18.406"/>
	
		<line fill="none" stroke="#9ED6E9" stroke-linecap="round" stroke-miterlimit="10" x1="14.917" y1="18.203" x2="16.912" y2="18.203"/>
	
		<line fill="none" stroke="#9ED6E9" stroke-linecap="round" stroke-miterlimit="10" x1="14.262" y1="19.25" x2="14.927" y2="19.25"/>
	
		<line fill="none" stroke="#81C8CB" stroke-linecap="round" stroke-miterlimit="10" x1="16.392" y1="19.391" x2="20.813" y2="19.391"/>
	
		<line fill="none" stroke="#79C5C1" stroke-linecap="round" stroke-miterlimit="10" x1="13.955" y1="20.406" x2="20.273" y2="20.406"/>
	
		<line fill="none" stroke="#92CECA" stroke-linecap="round" stroke-miterlimit="10" x1="13.125" y1="21.422" x2="19.422" y2="21.422"/>
	
		<line fill="none" stroke="#A6D1A8" stroke-linecap="round" stroke-miterlimit="10" x1="12.672" y1="22.422" x2="18.5" y2="22.422"/>
	<line fill="none" stroke="#C89AB0" stroke-linecap="round" stroke-miterlimit="10" x1="27.672" y1="8.516" x2="28.62" y2="8.516"/>
	
		<line fill="none" stroke="#8ABEE1" stroke-linecap="round" stroke-miterlimit="10" x1="17.052" y1="16.328" x2="22.375" y2="16.328"/>
	<line fill="none" stroke="#E7B6D1" stroke-linecap="round" stroke-miterlimit="10" x1="25.802" y1="9.516" x2="28" y2="9.516"/>
	
		<line fill="none" stroke="#DFC6DD" stroke-linecap="round" stroke-miterlimit="10" x1="24.25" y1="10.438" x2="27.072" y2="10.438"/>
	
		<line fill="none" stroke="#BC9CC5" stroke-linecap="round" stroke-miterlimit="10" x1="23.162" y1="11.422" x2="26.313" y2="11.422"/>
	
		<line fill="none" stroke="#DDCDE1" stroke-linecap="round" stroke-miterlimit="10" x1="21.625" y1="12.391" x2="25.53" y2="12.391"/>
	
		<line fill="none" stroke="#ACADD3" stroke-linecap="round" stroke-miterlimit="10" x1="20.273" y1="13.328" x2="24.737" y2="13.328"/>
	
		<line fill="none" stroke="#C8CFE9" stroke-linecap="round" stroke-miterlimit="10" x1="19.063" y1="14.313" x2="24.188" y2="14.313"/>
	
		<line fill="none" stroke="#A9C0E1" stroke-linecap="round" stroke-miterlimit="10" x1="17.858" y1="15.313" x2="23.5" y2="15.313"/>
</g>
</svg>
